<svg xmlns="http://www.w3.org/2000/svg" viewBox="0 0 75 100"><defs><style>.a{fill:#36bb58;}</style></defs><title>icon-download</title><path class="a" d="M65.21,20.34H10.14a1.69,1.69,0,0,0-1.63,1.72V78a1.68,1.68,0,0,0,1.63,1.71H65.19A1.67,1.67,0,0,0,66.82,78V22.06A1.66,1.66,0,0,0,65.21,20.34ZM63.56,30.43h0V76.27H11.78V23.78h51.8v6.65Z"/><path class="a" d="M54.93,55.19V65.48H20.41V55.19H17.15v12a1.68,1.68,0,0,0,1.63,1.71H56.56a1.67,1.67,0,0,0,1.63-1.71v-12Z"/><polygon class="a" points="32.88 36.73 32.88 48.08 28.05 48.08 37.67 59.44 47.3 48.08 42.49 48.08 42.49 36.73 32.88 36.73"/></svg>