<svg xmlns="http://www.w3.org/2000/svg" viewBox="0 0 26.09 31.43">
  <g fill="#2ebe6e">
    <path d="M12.67,0H8.62L0,9V31.43H26.09V0H12.67ZM8.8,4.07l0,5L4,9.12ZM23.14,28.48H2.95V12.07L11.77,12l0-9.06h11.4V28.48h0Z"/>
    <path d="M19.4,15.13H6.83a1,1,0,0,0,0,2H19.4A1,1,0,1,0,19.4,15.13Z"/>
    <path d="M19.4,19.47H6.83a1,1,0,0,0,0,2H19.4A1,1,0,1,0,19.4,19.47Z"/>
    <path d="M19.4,23.81H6.83a1,1,0,0,0,0,2H19.4A1,1,0,0,0,19.4,23.81Z"/>
    <path d="M19,8.75a2.15,2.15,0,1,0-2.46,0A3.49,3.49,0,0,0,14.31,12h7A3.49,3.49,0,0,0,19,8.75Z"/>
  </g>
</svg>
