<?xml version="1.0" encoding="utf-8"?>
<!-- Generator: Adobe Illustrator 21.1.0, SVG Export Plug-In . SVG Version: 6.00 Build 0)  -->
<svg version="1.1" id="Layer_1" xmlns="http://www.w3.org/2000/svg" xmlns:xlink="http://www.w3.org/1999/xlink" x="0px" y="0px"
	 viewBox="0 0 806.8 239.2" style="enable-background:new 0 0 806.8 239.2;" xml:space="preserve">
<style type="text/css">
	.st0{fill:#2FBE6E;}
	.st1{fill:#FFFFFF;}
	.st2{opacity:0.29;}
</style>
<g>
	<g>
		<path class="st0" d="M410.1,238.4v-53.2h17.4c5.8,0,10.1,1.2,13,3.6c2.9,2.4,4.4,5.9,4.4,10.6c0,2.5-0.7,4.7-2.1,6.6
			c-1.4,1.9-3.3,3.4-5.8,4.4c2.9,0.8,5.1,2.3,6.8,4.6c1.7,2.3,2.5,4.9,2.5,8.1c0,4.8-1.5,8.5-4.6,11.2c-3.1,2.7-7.5,4.1-13.1,4.1
			H410.1z M417.1,207.9h10.6c3.1,0,5.5-0.8,7.4-2.3c1.8-1.5,2.8-3.6,2.8-6.3c0-2.9-0.9-5.1-2.6-6.4c-1.7-1.3-4.3-2-7.8-2h-10.4
			V207.9z M417.1,213.6v19.1h11.6c3.3,0,5.8-0.8,7.7-2.5c1.9-1.7,2.8-4,2.8-7c0-6.4-3.5-9.6-10.4-9.6H417.1z"/>
		<path class="st0" d="M494.1,185.2v36.2c0,5-1.6,9.1-4.7,12.3c-3.1,3.2-7.4,5-12.7,5.4l-1.9,0.1c-5.8,0-10.5-1.6-13.9-4.7
			c-3.5-3.1-5.2-7.5-5.3-13v-36.2h6.9v36c0,3.8,1.1,6.8,3.2,9s5.1,3.2,9.1,3.2c4,0,7-1.1,9.1-3.2c2.1-2.1,3.2-5.1,3.2-8.9v-36H494.1
			z"/>
		<path class="st0" d="M512.7,238.4h-7v-53.2h7V238.4z"/>
		<path class="st0" d="M532.6,232.7h25.2v5.7h-32.3v-53.2h7V232.7z"/>
		<path class="st0" d="M565.8,238.4v-53.2h15c4.6,0,8.7,1,12.3,3.1c3.6,2,6.3,5,8.2,8.7c1.9,3.8,2.9,8.1,2.9,13v3.4
			c0,5-1,9.4-2.9,13.2c-1.9,3.8-4.7,6.7-8.3,8.7c-3.6,2-7.8,3.1-12.5,3.1H565.8z M572.8,191v41.7h7.4c5.4,0,9.6-1.7,12.6-5
			s4.5-8.2,4.5-14.4v-3.1c0-6-1.4-10.7-4.3-14.1s-6.9-5.1-12.1-5.1H572.8z"/>
	</g>
	<polyline class="st1" points="394.8,218.9 394.8,214.2 205.8,214.2 	"/>
	<polyline class="st1" points="617.8,218.9 617.8,214.2 806.8,214.2 	"/>
	<g>
		<path class="st1" d="M261.5,107.5l-19,0.1l0.2,42.4l-23.9,0.1l-0.7-115.8l43-0.2c13.7-0.1,24.3,2.9,31.7,9
			c7.5,6.1,11.2,14.7,11.3,25.8c0,7.9-1.6,14.5-5,19.8c-3.4,5.3-8.6,9.5-15.5,12.7l25.3,47.2l0,1.1l-25.6,0.1L261.5,107.5z
			 M242.3,88.2l19.3-0.1c6,0,10.6-1.6,13.9-4.7c3.3-3.1,4.9-7.3,4.9-12.6c0-5.5-1.6-9.8-4.7-12.9c-3.1-3.1-7.9-4.6-14.3-4.6
			l-19.2,0.1L242.3,88.2z"/>
		<path class="st1" d="M360.9,150.9c-12.6,0.1-22.9-3.7-30.9-11.4c-8-7.7-12-18-12.1-30.9l0-2.2c-0.1-8.6,1.6-16.4,4.9-23.2
			c3.3-6.8,8-12.1,14.1-15.8c6.1-3.7,13.1-5.6,20.9-5.7c11.8-0.1,21.1,3.6,27.9,11c6.8,7.4,10.2,17.9,10.3,31.5l0.1,9.4l-54.8,0.3
			c0.8,5.6,3,10.1,6.8,13.5c3.8,3.4,8.5,5,14.2,5c8.9-0.1,15.8-3.3,20.7-9.7l11.4,12.6c-3.4,4.9-8.1,8.7-13.9,11.5
			C374.6,149.4,368.1,150.8,360.9,150.9z M357.9,80.2c-4.6,0-8.3,1.6-11.1,4.7c-2.8,3.1-4.6,7.5-5.4,13.3l32-0.2l0-1.8
			c-0.1-5.1-1.5-9.1-4.2-11.8C366.6,81.5,362.8,80.1,357.9,80.2z"/>
		<path class="st1" d="M455.9,125c0-2.8-1.4-5-4.2-6.6c-2.8-1.6-7.3-3-13.4-4.3c-20.5-4.2-30.8-12.8-30.9-25.9
			c0-7.6,3.1-14,9.4-19.2c6.3-5.2,14.6-7.8,24.8-7.8c10.9-0.1,19.7,2.5,26.3,7.6c6.6,5.1,9.9,11.8,9.9,20l-23,0.1
			c0-3.3-1.1-6-3.2-8.1c-2.1-2.1-5.5-3.2-10-3.2c-3.9,0-6.9,0.9-9,2.7c-2.1,1.8-3.2,4-3.1,6.7c0,2.5,1.2,4.6,3.7,6.1s6.5,2.9,12.2,4
			c5.7,1.1,10.6,2.4,14.5,3.8c12.2,4.4,18.3,12.1,18.4,23c0,7.9-3.3,14.2-10,19.1s-15.4,7.4-26.1,7.4c-7.2,0-13.6-1.2-19.2-3.7
			c-5.6-2.5-10-6-13.2-10.5c-3.2-4.5-4.8-9.3-4.9-14.5l21.8-0.1c0.2,4.1,1.8,7.2,4.6,9.4c2.8,2.2,6.6,3.2,11.3,3.2
			c4.4,0,7.7-0.9,10-2.6C454.8,129.9,455.9,127.7,455.9,125z"/>
		<path class="st1" d="M544.7,139.5c-5.6,6.9-13.5,10.4-23.5,10.5c-9.2,0.1-16.3-2.6-21.2-7.8c-4.9-5.3-7.4-13-7.6-23.3l-0.3-56.4
			l23-0.1l0.3,55.7c0.1,9,4.2,13.4,12.3,13.4c7.8,0,13.1-2.8,16-8.2l-0.4-61l23.1-0.1l0.5,86.1l-21.6,0.1L544.7,139.5z"/>
		<path class="st1" d="M605.4,61.8l0.8,9.6c6.1-7.5,14.3-11.3,24.7-11.4c11.1-0.1,18.7,4.3,22.9,13c6-8.8,14.6-13.2,25.8-13.3
			c9.3-0.1,16.3,2.6,20.9,8c4.6,5.4,6.9,13.6,7,24.5l0.3,55l-23.1,0.1l-0.3-54.9c0-4.9-1-8.4-2.9-10.7c-1.9-2.2-5.3-3.4-10.1-3.3
			c-6.9,0-11.7,3.4-14.3,9.9l0.4,59.1l-23,0.1l-0.3-54.8c0-5-1-8.6-3-10.8c-2-2.2-5.3-3.3-10-3.3c-6.5,0-11.2,2.8-14.1,8.2l0.4,60.9
			l-23,0.1l-0.5-86.1L605.4,61.8z"/>
		<path class="st1" d="M765,148.5c-12.6,0.1-22.9-3.7-30.9-11.4c-8-7.7-12-18-12.1-30.9l0-2.2c-0.1-8.6,1.6-16.4,4.9-23.2
			c3.3-6.8,8-12.1,14.1-15.8c6.1-3.7,13.1-5.6,20.9-5.7c11.8-0.1,21.1,3.6,27.9,11c6.8,7.4,10.2,17.9,10.3,31.5l0.1,9.4l-54.8,0.3
			c0.8,5.6,3,10.1,6.8,13.5c3.8,3.4,8.5,5,14.2,5c8.9-0.1,15.8-3.3,20.7-9.7l11.4,12.6c-3.4,4.9-8.1,8.7-13.9,11.5
			C778.7,147.1,772.2,148.5,765,148.5z M762,77.8c-4.6,0-8.3,1.6-11.1,4.7c-2.8,3.1-4.6,7.5-5.4,13.3l32-0.2l0-1.8
			c-0.1-5.1-1.5-9.1-4.2-11.8C770.7,79.2,766.9,77.8,762,77.8z"/>
	</g>
	<g class="st2">
		<polygon class="st1" points="160.7,13.7 160.7,12.4 151.4,12.4 		"/>
		<polygon class="st1" points="36.3,207.2 13.9,207.2 13.9,204.1 2.6,202.6 13.9,120.5 13.9,48.3 23.8,48.3 27.1,24.5 43.6,12.4 
			29.9,12.4 0,41.3 0,221.1 137.1,221.1 		"/>
	</g>
	<g id="_x31_29_3_">
		<g>
			<path class="st1" d="M52.1,144c9.9,1.4,74.8,10.3,84.7,11.7c7.1,1,8.7-10.5,1.6-11.5c-9.9-1.4-74.8-10.3-84.7-11.7
				C46.6,131.6,45,143,52.1,144z"/>
			<path class="st1" d="M48,173.9c9.9,1.4,19.8,2.7,29.7,4.1c7.1,1,8.7-10.5,1.6-11.5c-9.9-1.4-19.8-2.7-29.7-4.1
				C42.4,161.5,40.9,172.9,48,173.9z"/>
			<path class="st1" d="M59.1,93.4c-7.1-1-8.7,10.5-1.6,11.5c9.9,1.4,74.8,10.3,84.7,11.7c7.1,1,8.7-10.5,1.6-11.5
				C133.9,103.7,69,94.8,59.1,93.4z"/>
			<path class="st1" d="M55,123.4c9.9,1.4,74.8,10.3,84.7,11.7c7.1,1,8.7-10.5,1.6-11.5c-9.9-1.4-74.8-10.3-84.7-11.7
				C49.4,111,47.8,122.5,55,123.4z"/>
			<path class="st1" d="M148.9,56.9c-9.9-1.4-19.8-2.7-29.7-4.1c-7.1-1-8.7,10.5-1.6,11.5c9.9,1.4,19.8,2.7,29.7,4.1
				C154.4,69.3,156,57.9,148.9,56.9z"/>
			<path class="st1" d="M146.3,75.4c-9.9-1.4-19.8-2.7-29.7-4.1c-7.1-1-8.7,10.5-1.6,11.5c9.9,1.4,19.8,2.7,29.7,4.1
				C151.9,87.9,153.5,76.4,146.3,75.4z"/>
			<path class="st1" d="M27.1,24.6L2.6,202.7l159.2,21.9l28.5-206.8L60.7,0L27.1,24.6z M18.3,190.8L39.9,33.4l22.9,3.2l3-21.8
				l108.8,15L149.9,209L18.3,190.8L18.3,190.8z"/>
		</g>
	</g>
</g>
</svg>
